<svg xmlns="http://www.w3.org/2000/svg" viewBox="0 0 180 64" role="img" aria-labelledby="rbs-wordmark-title">
  <title id="rbs-wordmark-title">RBS</title>
  <g aria-hidden="true">
    <rect x="1" y="1" width="62" height="62" rx="14" fill="#174A7E" stroke="#102F4E" stroke-width="2"/>
    <rect x="10" y="13" width="4" height="38" rx="2" fill="#C58A17"/>
    <rect x="19" y="13" width="23" height="8" rx="2.5" fill="#FFFFFF"/>
    <rect x="46" y="13" width="8" height="8" rx="2.5" fill="#C58A17"/>
    <rect x="19" y="28" width="11" height="8" rx="2.5" fill="#FFFFFF"/>
    <rect x="34" y="28" width="20" height="8" rx="2.5" fill="#FFFFFF"/>
    <rect x="19" y="43" width="22" height="8" rx="2.5" fill="#FFFFFF"/>
    <rect x="45" y="43" width="9" height="8" rx="2.5" fill="#C58A17"/>
  </g>
  <!-- Fixed outlines keep the wordmark identical even when platform fonts differ. -->
  <g fill="#174A7E" aria-hidden="true">
    <path transform="translate(80 42.78125)" d="M 2.492188 0 L 2.492188 -24.335938 L 12.832031 -24.335938 C 15.433594 -24.335938 17.324219 -24.121094 18.503906 -23.683594 C 19.679688 -23.246094 20.625 -22.46875 21.332031 -21.351562 C 22.042969 -20.230469 22.394531 -18.953125 22.394531 -17.515625 C 22.394531 -15.6875 21.859375 -14.179688 20.785156 -12.992188 C 19.710938 -11.800781 18.105469 -11.050781 15.96875 -10.742188 C 17.03125 -10.121094 17.910156 -9.441406 18.601562 -8.699219 C 19.292969 -7.957031 20.226562 -6.640625 21.398438 -4.75 L 24.371094 0 L 18.492188 0 L 14.941406 -5.296875 C 13.679688 -7.1875 12.816406 -8.382812 12.351562 -8.875 C 11.886719 -9.367188 11.394531 -9.703125 10.875 -9.886719 C 10.355469 -10.070312 9.53125 -10.160156 8.398438 -10.160156 L 7.40625 -10.160156 L 7.40625 0 Z M 7.40625 -14.046875 L 11.039062 -14.046875 C 13.398438 -14.046875 14.871094 -14.144531 15.457031 -14.34375 C 16.042969 -14.542969 16.5 -14.886719 16.835938 -15.375 C 17.164062 -15.859375 17.332031 -16.46875 17.332031 -17.199219 C 17.332031 -18.019531 17.113281 -18.679688 16.675781 -19.183594 C 16.238281 -19.6875 15.621094 -20.003906 14.824219 -20.136719 C 14.425781 -20.191406 13.230469 -20.21875 11.238281 -20.21875 L 7.40625 -20.21875 Z"/>
    <path transform="translate(104.546875 42.78125)" d="M 2.492188 -24.335938 L 12.21875 -24.335938 C 14.144531 -24.335938 15.582031 -24.257812 16.527344 -24.097656 C 17.472656 -23.9375 18.320312 -23.601562 19.066406 -23.09375 C 19.8125 -22.582031 20.4375 -21.90625 20.933594 -21.058594 C 21.433594 -20.210938 21.679688 -19.261719 21.679688 -18.210938 C 21.679688 -17.070312 21.375 -16.027344 20.761719 -15.074219 C 20.144531 -14.121094 19.3125 -13.410156 18.261719 -12.933594 C 19.746094 -12.5 20.882812 -11.765625 21.679688 -10.726562 C 22.476562 -9.683594 22.875 -8.460938 22.875 -7.054688 C 22.875 -5.949219 22.621094 -4.871094 22.105469 -3.828125 C 21.589844 -2.78125 20.886719 -1.945312 19.996094 -1.320312 C 19.105469 -0.695312 18.007812 -0.308594 16.703125 -0.164062 C 15.882812 -0.078125 13.90625 -0.0234375 10.773438 0 L 2.492188 0 Z M 7.40625 -20.289062 L 7.40625 -14.660156 L 10.625 -14.660156 C 12.539062 -14.660156 13.730469 -14.6875 14.195312 -14.742188 C 15.035156 -14.84375 15.695312 -15.132812 16.179688 -15.613281 C 16.660156 -16.09375 16.898438 -16.730469 16.898438 -17.515625 C 16.898438 -18.265625 16.691406 -18.878906 16.277344 -19.347656 C 15.863281 -19.820312 15.246094 -20.105469 14.425781 -20.203125 C 13.941406 -20.257812 12.539062 -20.289062 10.226562 -20.289062 Z M 7.40625 -10.609375 L 7.40625 -4.101562 L 11.953125 -4.101562 C 13.722656 -4.101562 14.847656 -4.148438 15.324219 -4.25 C 16.054688 -4.382812 16.648438 -4.707031 17.109375 -5.222656 C 17.566406 -5.734375 17.796875 -6.425781 17.796875 -7.289062 C 17.796875 -8.019531 17.621094 -8.636719 17.265625 -9.148438 C 16.910156 -9.65625 16.398438 -10.027344 15.730469 -10.257812 C 15.058594 -10.492188 13.609375 -10.609375 11.371094 -10.609375 Z"/>
    <path transform="translate(129.09375 42.78125)" d="M 1.226562 -7.917969 L 6.007812 -8.382812 C 6.296875 -6.777344 6.882812 -5.601562 7.761719 -4.847656 C 8.640625 -4.09375 9.828125 -3.71875 11.320312 -3.71875 C 12.90625 -3.71875 14.097656 -4.054688 14.898438 -4.722656 C 15.703125 -5.394531 16.101562 -6.175781 16.101562 -7.070312 C 16.101562 -7.648438 15.933594 -8.136719 15.597656 -8.542969 C 15.257812 -8.945312 14.671875 -9.296875 13.828125 -9.59375 C 13.253906 -9.796875 11.941406 -10.148438 9.894531 -10.65625 C 7.261719 -11.3125 5.414062 -12.113281 4.351562 -13.066406 C 2.855469 -14.40625 2.109375 -16.039062 2.109375 -17.960938 C 2.109375 -19.203125 2.460938 -20.363281 3.164062 -21.441406 C 3.867188 -22.519531 4.878906 -23.34375 6.199219 -23.90625 C 7.523438 -24.46875 9.121094 -24.753906 10.992188 -24.753906 C 14.046875 -24.753906 16.34375 -24.082031 17.886719 -22.742188 C 19.433594 -21.40625 20.242188 -19.617188 20.320312 -17.382812 L 15.40625 -17.164062 C 15.195312 -18.417969 14.746094 -19.316406 14.054688 -19.863281 C 13.363281 -20.410156 12.324219 -20.6875 10.941406 -20.6875 C 9.511719 -20.6875 8.394531 -20.390625 7.585938 -19.804688 C 7.066406 -19.429688 6.804688 -18.925781 6.804688 -18.296875 C 6.804688 -17.71875 7.050781 -17.226562 7.539062 -16.816406 C 8.15625 -16.296875 9.664062 -15.753906 12.054688 -15.191406 C 14.445312 -14.625 16.210938 -14.042969 17.355469 -13.4375 C 18.503906 -12.835938 19.398438 -12.011719 20.046875 -10.964844 C 20.695312 -9.917969 21.015625 -8.628906 21.015625 -7.089844 C 21.015625 -5.695312 20.628906 -4.386719 19.855469 -3.171875 C 19.082031 -1.953125 17.984375 -1.046875 16.570312 -0.457031 C 15.152344 0.136719 13.386719 0.429688 11.273438 0.429688 C 8.195312 0.429688 5.832031 -0.28125 4.183594 -1.703125 C 2.535156 -3.125 1.550781 -5.195312 1.226562 -7.917969 Z"/>
  </g>
</svg>
